<svg width="39" height="50" viewBox="0 0 39 50" fill="none" xmlns="http://www.w3.org/2000/svg">
<path d="M28.4299 23.3635C28.4299 25.7315 27.4892 28.0025 25.8148 29.677C24.1403 31.3514 21.8693 32.2921 19.5013 32.2921C17.1333 32.2921 14.8623 31.3514 13.1879 29.677C11.5134 28.0025 10.5728 25.7315 10.5728 23.3635V10.8635C10.5728 8.4955 11.5134 6.22449 13.1879 4.55005C14.8623 2.87562 17.1333 1.93494 19.5013 1.93494C21.8693 1.93494 24.1403 2.87562 25.8148 4.55005C27.4892 6.22449 28.4299 8.4955 28.4299 10.8635V23.3635Z" stroke="url(#paint0_linear_103_226)" stroke-width="3" stroke-linecap="round" stroke-linejoin="round"/>
<path d="M37.3585 25.1492C37.3632 27.261 36.9507 29.353 36.1447 31.305C35.3387 33.257 34.1551 35.0306 32.6618 36.5239C31.1685 38.0172 29.3949 39.2008 27.4429 40.0068C25.4909 40.8128 23.3989 41.2253 21.2871 41.2206H17.7156C15.6038 41.2253 13.5118 40.8128 11.5598 40.0068C9.6078 39.2008 7.83423 38.0172 6.34092 36.5239C4.84761 35.0306 3.66398 33.257 2.85798 31.305C2.05198 29.353 1.6395 27.261 1.6442 25.1492M19.5013 41.2206V48.3635" stroke="url(#paint1_linear_103_226)" stroke-width="3" stroke-linecap="round" stroke-linejoin="round"/>
<defs>
<linearGradient id="paint0_linear_103_226" x1="19.5013" y1="1.93494" x2="19.5013" y2="32.2921" gradientUnits="userSpaceOnUse">
<stop stop-color="#7A3199"/>
<stop offset="1" stop-color="#161033"/>
</linearGradient>
<linearGradient id="paint1_linear_103_226" x1="19.5013" y1="25.1492" x2="19.5013" y2="48.3635" gradientUnits="userSpaceOnUse">
<stop stop-color="#7A3199"/>
<stop offset="1" stop-color="#161033"/>
</linearGradient>
</defs>
</svg>
