<svg width="45" height="35" viewBox="0 0 45 35" fill="none" xmlns="http://www.w3.org/2000/svg">
<path fill-rule="evenodd" clip-rule="evenodd" d="M8.48506 13.4793C8.71506 9.91379 10.2936 6.56953 12.9001 4.12577C15.5066 1.68202 18.9455 0.322021 22.5184 0.322021C26.0913 0.322021 29.5302 1.68202 32.1367 4.12577C34.7432 6.56953 36.3217 9.91379 36.5517 13.4793C37.4251 13.0272 38.4002 12.8077 39.3831 12.8417C40.366 12.8756 41.3236 13.1621 42.1637 13.6734C43.0038 14.1847 43.6981 14.9036 44.1798 15.761C44.6616 16.6184 44.9145 17.5854 44.9142 18.5689V22.7355C44.9143 23.515 44.7554 24.2862 44.4471 25.0021C44.1388 25.718 43.6877 26.3635 43.1214 26.899C42.555 27.4345 41.8854 27.8488 41.1534 28.1166C40.4214 28.3844 39.6424 28.5 38.8642 28.4564V28.4647C37.4299 28.4647 36.0542 27.8949 35.04 26.8806C34.0257 25.8664 33.4559 24.4907 33.4559 23.0564V14.4022C33.4559 11.5014 32.3036 8.71939 30.2524 6.66822C28.2012 4.61704 25.4192 3.4647 22.5184 3.4647C19.6176 3.4647 16.8356 4.61704 14.7844 6.66822C12.7332 8.71939 11.5809 11.5014 11.5809 14.4022L11.5809 23.0564C11.5809 24.4907 11.0111 25.8664 9.99683 26.8806C8.98257 27.8949 7.60694 28.4647 6.17256 28.4647V28.4564C5.39434 28.5 4.6154 28.3844 3.88341 28.1166C3.15141 27.8488 2.48176 27.4345 1.91542 26.899C1.34908 26.3635 0.897974 25.718 0.5897 25.0021C0.281425 24.2862 0.122469 23.515 0.122559 22.7355L0.122559 18.5689C0.122307 17.5854 0.375222 16.6184 0.856959 15.761C1.3387 14.9036 2.03303 14.1847 2.87313 13.6734C3.71323 13.1621 4.67081 12.8756 5.65369 12.8417C6.63656 12.8077 7.61164 13.0272 8.48506 13.4793ZM8.45589 18.5689C8.45562 17.8782 8.18098 17.2159 7.69241 16.7277C7.20384 16.2396 6.54135 15.9655 5.85068 15.9657C5.16002 15.966 4.49775 16.2406 4.00957 16.7292C3.52138 17.2178 3.24728 17.8803 3.24756 18.5709L3.24756 22.7376C3.24756 23.4283 3.52193 24.0907 4.0103 24.579C4.49868 25.0674 5.16106 25.3418 5.85173 25.3418C6.54239 25.3418 7.20477 25.0674 7.69315 24.579C8.18153 24.0907 8.45589 23.4283 8.45589 22.7376C8.45589 22.7397 8.45589 22.7376 8.45589 22.7376V18.5709V18.5689ZM14.7059 14.4043C14.7059 12.3323 15.529 10.3451 16.9941 8.88001C18.4592 7.41488 20.4464 6.59178 22.5184 6.59178C24.5904 6.59178 26.5775 7.41488 28.0427 8.88001C29.5078 10.3451 30.3309 12.3323 30.3309 14.4043V20.6543C30.3309 22.4552 29.7088 24.2008 28.57 25.5959C27.4311 26.991 25.8453 27.95 24.0809 28.3105L24.0809 33.1522C24.0809 33.5666 23.9163 33.964 23.6232 34.2571C23.3302 34.5501 22.9328 34.7147 22.5184 34.7147C22.104 34.7147 21.7066 34.5501 21.4135 34.2571C21.1205 33.964 20.9559 33.5666 20.9559 33.1522L20.9559 28.3084C19.1914 27.9479 17.6057 26.9889 16.4668 25.5938C15.328 24.1987 14.7059 22.4531 14.7059 20.6522L14.7059 14.4022V14.4043ZM18.0976 12.8418H18.3517C18.7661 12.8418 19.1636 13.0064 19.4566 13.2994C19.7496 13.5924 19.9142 13.9899 19.9142 14.4043C19.9142 14.8187 19.7496 15.2161 19.4566 15.5091C19.1636 15.8022 18.7661 15.9668 18.3517 15.9668H17.8309V19.0918H18.3517C18.7661 19.0918 19.1636 19.2564 19.4566 19.5494C19.7496 19.8424 19.9142 20.2399 19.9142 20.6543C19.9142 21.0687 19.7496 21.4661 19.4566 21.7591C19.1636 22.0522 18.7661 22.2168 18.3517 22.2168H18.0976C18.4201 23.1317 19.0185 23.924 19.8103 24.4844C20.6021 25.0448 21.5483 25.3458 22.5184 25.3458C23.4885 25.3458 24.4347 25.0448 25.2265 24.4844C26.0183 23.924 26.6167 23.1317 26.9392 22.2168H24.6017C24.1873 22.2168 23.7899 22.0522 23.4969 21.7591C23.2038 21.4661 23.0392 21.0687 23.0392 20.6543C23.0392 20.2399 23.2038 19.8424 23.4969 19.5494C23.7899 19.2564 24.1873 19.0918 24.6017 19.0918H27.2059V15.9668H24.6017C24.1873 15.9668 23.7899 15.8022 23.4969 15.5091C23.2038 15.2161 23.0392 14.8187 23.0392 14.4043C23.0392 13.9899 23.2038 13.5924 23.4969 13.2994C23.7899 13.0064 24.1873 12.8418 24.6017 12.8418H26.9392C26.6157 11.9278 26.0169 11.1366 25.2253 10.577C24.4336 10.0174 23.4879 9.71694 22.5184 9.71694C21.5489 9.71694 20.6032 10.0174 19.8115 10.577C19.0198 11.1366 18.421 11.9278 18.0976 12.8418ZM39.1851 15.9647C37.7476 15.9647 36.5809 17.1314 36.5809 18.5689V22.7355C36.5809 23.4262 36.8553 24.0886 37.3436 24.577C37.832 25.0653 38.4944 25.3397 39.1851 25.3397C39.8757 25.3397 40.5381 25.0653 41.0265 24.577C41.5149 24.0886 41.7892 23.4262 41.7892 22.7355V18.5689C41.7892 17.1314 40.6226 15.9647 39.1851 15.9647Z" fill="url(#paint0_linear_103_230)"/>
<defs>
<linearGradient id="paint0_linear_103_230" x1="22.5184" y1="0.322021" x2="22.5184" y2="34.7147" gradientUnits="userSpaceOnUse">
<stop stop-color="#7A3199"/>
<stop offset="1" stop-color="#161033"/>
</linearGradient>
</defs>
</svg>
